<svg xmlns="http://www.w3.org/2000/svg" viewBox="0 0 24 24" fill="#444">
  <path d="M12 2C6.48 2 2 6.48 2 12s4.48 10 10 10 10-4.48 10-10S17.52 2 12 2zm6.93 6h-3.17a15.1 15.1 0 00-1.26-3.34A8.03 8.03 0 0118.93 8zM12 4c.88 1.2 1.6 2.74 2.03 4H9.97C10.4 6.74 11.12 5.2 12 4zM4.07 8a8.03 8.03 0 013.43-3.34A15.1 15.1 0 006.24 8H4.07zM4 12c0-.68.07-1.35.18-2h3.3a17.6 17.6 0 000 4H4.18c-.11-.65-.18-1.32-.18-2zm.07 4h2.17a15.1 15.1 0 001.26 3.34A8.03 8.03 0 014.07 16zM12 20a13.3 13.3 0 01-2.03-4h4.06A13.3 13.3 0 0112 20zm3.76-2.66A15.1 15.1 0 0017.93 16h2.17a8.03 8.03 0 01-3.43 3.34zM16.52 14H7.48a15.1 15.1 0 010-4h9.04a15.1 15.1 0 010 4z"/>
</svg>
